<?xml version="1.0" encoding="utf-8"?>
<!-- Generator: Adobe Illustrator 21.0.2, SVG Export Plug-In . SVG Version: 6.00 Build 0)  -->
<svg version="1.1" id="Слой_1" xmlns="http://www.w3.org/2000/svg" xmlns:xlink="http://www.w3.org/1999/xlink" x="0px" y="0px"
	 viewBox="0 0 219 148" style="enable-background:new 0 0 219 148;" xml:space="preserve">
<style type="text/css">
	.st0{display:none;}
	.st1{display:inline;}
	.st2{fill:none;stroke:#000000;stroke-width:9;stroke-miterlimit:10;}
</style>
<g class="st0">
	<path class="st1" d="M198.6,148.5H21.1c-11.4,0-20.7-9.3-20.7-20.7V21.1C0.3,9.7,9.6,0.4,21.1,0.4h177.5c11.4,0,20.7,9.3,20.7,20.7
		v106.6C219.3,139.2,210,148.5,198.6,148.5z M21.1,5.4c-8.7,0-15.7,7.1-15.7,15.7v106.6c0,8.7,7.1,15.7,15.7,15.7h177.5
		c8.7,0,15.7-7.1,15.7-15.7V21.1c0-8.7-7.1-15.7-15.7-15.7H21.1z"/>
</g>
<path d="M184.2,130H34.8c-7.6,0-13.8-6.2-13.8-13.8V32.8C21,25.2,27.2,19,34.8,19h149.4c7.6,0,13.8,6.2,13.8,13.8v83.3
	C198,123.8,191.8,130,184.2,130z"/>
<path class="st2" d="M188.5,142.5H30.8c-13.9,0-25.2-11.3-25.2-25.2V31.6c0-13.9,11.3-25.2,25.2-25.2h157.7
	c13.9,0,25.2,11.3,25.2,25.2v85.7C213.7,131.2,202.4,142.5,188.5,142.5z"/>
</svg>
