<?xml version="1.0"?>
<svg xmlns="http://www.w3.org/2000/svg" xmlns:xlink="http://www.w3.org/1999/xlink" version="1.1" id="Capa_1" x="0px" y="0px" width="512px" height="512px" viewBox="0 0 516.375 516.375" style="enable-background:new 0 0 516.375 516.375;" xml:space="preserve" class=""><g><g>
	<g>
		<path d="M344.25,133.875h95.625L325.125,0v114.75C325.125,126.225,334.688,133.875,344.25,133.875z" data-original="#000000" class="active-path" data-old_color="#294c89" fill="#294c89"/>
		<path d="M306,114.75V0H114.75C93.712,0,76.5,17.212,76.5,38.25v439.875c0,21.037,17.212,38.25,38.25,38.25h286.875    c21.037,0,38.25-17.213,38.25-38.25V153H344.25C323.213,153,306,135.788,306,114.75z M258.188,459l-86.062-86.062l15.3-15.3    l61.2,63.112V210.375h19.125V420.75l61.2-61.2l15.3,15.3L258.188,459z" data-original="#000000" class="active-path" data-old_color="#294c89" fill="#294c89"/>
	</g>
</g></g> </svg>
