<?xml version="1.0" encoding="utf-8"?>
<!-- Generator: Adobe Illustrator 21.0.2, SVG Export Plug-In . SVG Version: 6.00 Build 0)  -->
<svg version="1.1" id="Capa_1" xmlns="http://www.w3.org/2000/svg" xmlns:xlink="http://www.w3.org/1999/xlink" x="0px" y="0px"
	 viewBox="0 0 512 512" style="enable-background:new 0 0 512 512;" xml:space="preserve">
<style type="text/css">
	.st0{fill:#FFC815;}
</style>
<g>
	<path class="st0" d="M504.4,310.8L436.6,95.5c-9.6-31.4-42.9-49.1-74.3-39.6c-7.5,2.3-11.8,10.2-9.4,17.6s10.2,11.8,17.6,9.4
		c16.5-5,33.9,4.3,38.9,20.8v0.1l48.5,154.2c-15.4-8.7-33.2-13.6-52.1-13.6c-54.4,0-99.3,41.1-105.4,93.8h-89.2
		c-6.9-51.9-51.4-91.9-105.2-91.9c-19,0-36.8,5-52.3,13.7L103,103.9v-0.1c5-16.5,22.5-25.8,38.9-20.8c7.5,2.3,15.4-2,17.6-9.4
		c2.3-7.5-2-15.4-9.4-17.6c-31.4-9.6-64.7,8.2-74.3,39.6L8.2,311c-0.2,0.6-0.3,1.2-0.4,1.8C2.8,325.1,0,338.5,0,352.5
		C0,411,47.7,458.6,106.1,458.6c53.7,0,98.2-40.1,105.2-91.9H301c7.8,50.9,51.9,90.1,104.9,90.1c58.5,0,106.1-47.7,106.1-106.1
		C512.1,336.5,509.4,323.1,504.4,310.8z M106.2,430.3c-42.9,0-77.8-34.8-77.8-77.8s34.8-77.8,77.8-77.8s77.8,34.8,77.8,77.8
		S149,430.3,106.2,430.3z M406,428.4c-42.9,0-77.8-34.8-77.8-77.8s35-77.8,77.8-77.8s77.8,34.8,77.8,77.8S448.9,428.4,406,428.4z"/>
</g>
</svg>
