<?xml version="1.0" encoding="utf-8"?>
<!-- Generator: Adobe Illustrator 21.0.2, SVG Export Plug-In . SVG Version: 6.00 Build 0)  -->
<svg version="1.1" id="Слой_1" xmlns="http://www.w3.org/2000/svg" xmlns:xlink="http://www.w3.org/1999/xlink" x="0px" y="0px"
	 viewBox="0 0 350 200" style="enable-background:new 0 0 350 200;" xml:space="preserve">
<style type="text/css">
	.st0{fill:#FFFFFF;}
</style>
<path class="st0" d="M286,170.8h13.5c0,3.7-3,6.8-6.8,6.8C289,177.6,286,174.6,286,170.8z M291.5,167.1v3.7h2.6v-3.7H291.5z
	 M248.2,177.6c3.7,0,6.8-3,6.8-6.8h-13.5C241.5,174.6,244.5,177.6,248.2,177.6z M246.9,167.1v3.7h2.6v-3.7H246.9z M329,117.1h6.3
	c0,3.7-3,6.8-6.8,6.8c-0.4,0-0.8,0-1.1-0.1c-0.5,1.8-1.2,3.5-1.9,5.3c3.1,0.6,5.4,3.4,5.4,6.6h-8.6c-0.7,1.3-1.5,2.5-2.3,3.7H331
	c0,3.7-3,6.8-6.8,6.8c-2.7,0-5-1.6-6.1-3.9c-1.5,2-3.1,3.9-4.9,5.7c2.9,0.8,5,3.4,5,6.5h-12.4c-3.3,2.5-6.9,4.6-10.7,6.3
	c2.6,0.9,4.5,3.4,4.5,6.4H286c0-1.2,0.3-2.4,0.9-3.4c-0.8,0.2-1.6,0.4-2.4,0.6l3.3,19.2h-7l-3-17.9c-1.1,0.1-2.3,0.2-3.4,0.3
	c1.8,1.2,3,3.3,3,5.6h-5.5v3.7h5.5c0,3.7-3,6.8-6.8,6.8c-3.7,0-6.8-3-6.8-6.8h5.5v-3.7h-5.5c0-2.3,1.2-4.4,3-5.6
	c-1.2-0.1-2.3-0.2-3.4-0.3l-3,17.9h-7l3.3-19.2c-0.8-0.2-1.6-0.4-2.4-0.6c0.6,1,0.9,2.1,0.9,3.4h-13.5c0-2.9,1.9-5.4,4.5-6.4
	c-4.9-2.2-9.4-5-13.4-8.4l-0.7-4c4.6,4.3,9.9,7.8,15.7,10.4l9.1-22.1c-2.6-1.2-5-2.7-7.2-4.5l-7.2,4.4l-10.7,10.7l-0.5-3.1l9.4-9.4
	l4.4-7.2c-1.8-2.2-3.3-4.6-4.5-7.2l-12.6,5.2l-0.4-2.5h-3v-6.4h1.9l1.1,6.2l12.1-5c-1-2.6-1.6-5.4-1.9-8.3l-7.4-1.7v5.1h-25.5V98.5
	h-11v14.6h-37.2V98.5h-11v14.6H120V94.9h110.2v10.2l7.4-1.7c0.3-2.9,0.9-5.6,1.9-8.3l-9.3-3.8v-0.1H120l4.2-4.2h90.1
	c0.4-1.1,0.8-2.2,1.2-3.2c0,0,0,0,0,0c0,0,0,0,0,0c1.9-4.5,4.2-8.7,7.1-12.5c0.3-2.6,2.2-4.8,4.6-5.5c0.3-0.3,0.6-0.7,1-1
	c0-0.1,0.1-0.1,0.2-0.2c0.1-0.1,0.1-0.1,0.2-0.2c5.4-5.4,11.9-9.7,19.1-12.7c0,0,0,0,0,0c0,0,0,0,0,0c7-2.9,14.7-4.5,22.7-4.5
	s15.7,1.6,22.7,4.5c0,0,0,0,0,0c0,0,0,0,0,0c7.2,3,13.6,7.3,19.1,12.7c0.1,0,0.1,0.1,0.2,0.2s0.1,0.1,0.2,0.2c0.3,0.3,0.7,0.7,1,1
	c2.5,0.8,4.3,2.9,4.6,5.5c2.8,3.8,5.2,8,7.1,12.5c0,0,0,0,0,0c0,0,0,0,0,0c0.1,0.2,0.2,0.4,0.3,0.6c3,0.7,5.3,3.4,5.3,6.6h-3.1
	c0.3,1.2,0.6,2.5,0.9,3.7h2.2c0,1.6-0.6,3.1-1.5,4.3c0.3,2.5,0.5,5,0.5,7.5c0,0,0,0.1,0,0.1c3.1,0.6,5.4,3.4,5.4,6.6h-5.7v0h0.3v3.7
	H329L329,117.1z M249.5,63.3h1.7l-1.5-3.7h-0.1V63.3z M231.2,65.5l0.3,0.3c2,0.7,3.6,2.2,4.2,4.2l6.6,6.6l7.2,4.4
	c2.2-1.8,4.6-3.3,7.2-4.5l-3.6-8.6c-1.2,1.3-3,2.1-4.9,2.1c-3.7,0-6.8-3-6.8-6.8h5.5v-3.7h-5.5c0-0.7,0.1-1.5,0.4-2.1
	C238,59.7,234.4,62.4,231.2,65.5z M256.4,90.7l10.5,10.5l-5.7-13.7C259.4,88.3,257.8,89.4,256.4,90.7z M260.2,85.1l-0.8-1.9
	l-0.1,2.4C259.6,85.4,259.9,85.2,260.2,85.1z M265.3,82l1.3-5.7c-2.1,0.3-4,0.7-5.9,1.4L265.3,82z M261.8,82.2l0.8,1.9
	c0.3-0.1,0.6-0.2,0.9-0.3L261.8,82.2z M248.5,86.4l3.3,5.4c0.3-0.4,0.6-0.8,0.9-1.1L248.5,86.4z M254.6,88.9
	c0.4-0.3,0.7-0.6,1.1-0.9l-5.4-3.3L254.6,88.9z M249.3,105.3H264l-13.7-5.7C249.8,101.4,249.4,103.3,249.3,105.3z M249.4,95.4
	l-2.4,0.1l1.9,0.8C249.1,96,249.3,95.7,249.4,95.4z M246.4,87.9c-1.2,1.6-2.3,3.3-3.2,5.2l6.3-0.2L246.4,87.9z M246.1,97.9l1.6,1.7
	c0.1-0.3,0.2-0.6,0.3-0.9L246.1,97.9z M240.6,105.3h6c0-0.5,0.1-1,0.1-1.4L240.6,105.3z M240.6,107.9l6.2,1.4
	c-0.1-0.5-0.1-1-0.1-1.4H240.6z M246.1,115.3l1.9-0.8c-0.1-0.3-0.2-0.6-0.3-0.9L246.1,115.3z M247.1,117.7l2.4,0.1
	c-0.2-0.3-0.3-0.6-0.4-0.9L247.1,117.7z M250.4,113.5l13.7-5.7h-14.8C249.4,109.9,249.8,111.7,250.4,113.5z M251.4,115.9
	c0.9,1.7,1.9,3.4,3.2,4.8l10.5-10.5L251.4,115.9z M265,103l-10.5-10.5c-1.3,1.4-2.4,3-3.2,4.8L265,103z M257,79.3
	c-1.8,0.9-3.6,2-5.2,3.2l4.9,3.1L257,79.3z M222.6,75.9h5.5v-3.7h-2.9C224.3,73.4,223.4,74.7,222.6,75.9z M220,87.1l-2.6-1.1
	c-0.1,0.4-0.3,0.7-0.4,1.1H220z M240.5,92.8c1.2-2.6,2.7-5,4.5-7.2l-4.4-7.2l-6.2-6.2h-3.7v3.7h5.5c0,3.7-3,6.8-6.8,6.8
	c-3.7,0-6.8-3-6.8-6.8c-1.6,2.4-3,5-4.2,7.7L240.5,92.8z M240.3,102.8l5.7-1.3l-4.3-4.6C241,98.7,240.5,100.7,240.3,102.8z
	 M241.6,116.4l4.3-4.6l-5.7-1.3C240.5,112.5,241,114.5,241.6,116.4z M246.4,125.3l3.1-4.9l-6.3-0.2
	C244.1,121.9,245.2,123.7,246.4,125.3z M252.8,122.5c-0.3-0.4-0.6-0.7-0.9-1.1l-3.3,5.4L252.8,122.5z M250.3,128.6l5.4-3.3
	c-0.4-0.3-0.8-0.6-1.1-0.9L250.3,128.6z M257,133.9l-0.2-6.3l-4.9,3.1C253.4,131.9,255.1,133,257,133.9z M260.9,138.2
	c-0.6-0.2-1.3-0.4-1.9-0.6l-9.1,22.1c2.3,0.9,4.6,1.6,7,2.2L260.9,138.2z M259.4,130l0.8-1.9c-0.3-0.1-0.6-0.3-0.9-0.4L259.4,130z
	 M261.5,134.7l-0.8,0.8c0.2,0.1,0.4,0.2,0.7,0.2L261.5,134.7z M262.4,129.4l-0.6,1.4l0.4-0.4L262.4,129.4z M264.4,118l0.7-4.2
	l-8.7,8.7c1.4,1.3,3,2.4,4.8,3.2L264.4,118z M269.2,147.7l-1.7-7l-3.8,22.4c1.8,0.2,3.6,0.3,5.5,0.4V147.7z M269.2,130.6l-0.6,3.6
	l0.6,2.5V130.6z M269.2,85.4c-2,0.1-3.9,0.5-5.7,1.1l5.7,13.7V85.4z M269.2,76.8l-1.4,6.2c0.5-0.1,1-0.1,1.4-0.1V76.8z M269.2,55.2
	h-5.5c0-2.2,1-4.1,2.6-5.3c-5.5,0.4-10.8,1.6-15.7,3.4c2.6,1,4.4,3.4,4.4,6.3h-2.6l1.5,3.7h1c0,0.6-0.1,1.3-0.3,1.9l4.3,10.4
	c2.6-1,5.4-1.6,8.3-1.9l1.9-8.2c-3.1-0.6-5.5-3.3-5.5-6.6h5.5l0,0V55.2L269.2,55.2z M312.9,75.9h5.5c-0.8-1.3-1.7-2.5-2.6-3.7h-2.9
	V75.9z M304.9,75.9h5.5v-3.7h-3.7l-6.2,6.2l-4.4,7.2c1.8,2.2,3.3,4.6,4.5,7.2l22.1-9.1c-1.2-2.7-2.6-5.3-4.2-7.7
	c0,3.7-3,6.8-6.8,6.8C307.9,82.7,304.9,79.7,304.9,75.9z M290.7,128.6l-4.3-4.3c-0.4,0.3-0.7,0.6-1.1,0.9L290.7,128.6z M284.2,127.6
	l-0.2,6.3c1.8-0.9,3.6-2,5.2-3.2L284.2,127.6z M277.5,83.8c0.3,0.1,0.6,0.2,0.9,0.3l0.8-1.9L277.5,83.8z M280.3,77.7
	c-1.9-0.6-3.9-1.1-5.9-1.4l1.3,5.7L280.3,77.7z M274.1,101.1l10.5-10.5c-1.4-1.3-3-2.4-4.8-3.2L274.1,101.1z M281.7,85.5l-0.1-2.4
	l-0.8,1.9C281.1,85.2,281.4,85.4,281.7,85.5z M297.8,93.1c-0.9-1.8-2-3.6-3.2-5.2l-3.1,4.9L297.8,93.1z M295.1,101.3l5.7,1.4
	c-0.3-2-0.7-4-1.4-5.9L295.1,101.3z M293.3,113.6c-0.1,0.3-0.2,0.6-0.3,0.9l1.9,0.8L293.3,113.6z M300.3,107.9h-6
	c0,0.5-0.1,1-0.1,1.4L300.3,107.9z M290.6,99.7l-13.7,5.7h14.8C291.6,103.3,291.2,101.4,290.6,99.7z M292,96.3l1.9-0.8l-2.4-0.1
	C291.7,95.7,291.9,96,292,96.3z M289.6,97.3c-0.9-1.7-1.9-3.4-3.2-4.8L276,103L289.6,97.3z M276.9,107.9l13.7,5.7
	c0.6-1.8,1-3.7,1.1-5.7H276.9z M291.5,117.8l2.4-0.1l-1.9-0.8C291.9,117.2,291.7,117.5,291.5,117.8z M294.7,98l-1.7,0.7
	c0.1,0.3,0.2,0.5,0.3,0.8L294.7,98z M292.5,86.4l-4.3,4.3c0.3,0.4,0.6,0.7,0.9,1.1L292.5,86.4z M290.7,84.6l-5.4,3.3
	c0.4,0.3,0.8,0.6,1.1,0.9L290.7,84.6z M289.2,82.5c-1.6-1.2-3.3-2.3-5.2-3.2l0.2,6.3L289.2,82.5z M276,110.2l10.5,10.5
	c1.3-1.4,2.4-3,3.2-4.8L276,110.2z M292.5,126.8l-3.3-5.4c-0.3,0.4-0.6,0.8-0.9,1.1L292.5,126.8z M294.6,125.3
	c1.2-1.6,2.3-3.3,3.2-5.2l-6.3,0.2L294.6,125.3z M299.4,116.4c0.6-1.9,1.1-3.9,1.4-5.9l-5.7,1.3L299.4,116.4z M300.7,105.3l-6.6-1.6
	c0.1,0.5,0.1,1.1,0.1,1.6H300.7z M292.8,70.1c-1.9,0-3.7-0.8-4.9-2.1l-3.6,8.6c2.6,1.2,5,2.7,7.2,4.5l7.2-4.4l6.6-6.6
	c0.7-2,2.2-3.6,4.2-4.2l0.3-0.3c-3.2-3.1-6.8-5.8-10.6-8c0.2,0.7,0.4,1.4,0.4,2.1H294v3.7h5.5C299.5,67,296.5,70.1,292.8,70.1z
	 M291.3,59.6l-1.5,3.7h1.7v-3.7H291.3z M271.8,58.9h5.5c0,3.3-2.4,6-5.5,6.6l1.9,8.2c2.9,0.3,5.6,0.9,8.3,1.9l4.3-10.4
	c-0.2-0.6-0.3-1.2-0.3-1.9h1l1.5-3.7H286c0-2.9,1.8-5.4,4.4-6.3c-5-1.9-10.2-3-15.7-3.4c1.6,1.2,2.6,3.2,2.6,5.3h-5.5l0,0V58.9
	L271.8,58.9z M271.8,82.8c0.5,0,1,0.1,1.4,0.1l-1.4-6.2V82.8z M271.8,100.2l5.7-13.7c-1.8-0.6-3.7-1-5.7-1.1V100.2z M271.8,136.6
	l0.6-2.5l-0.6-3.5V136.6z M277.3,163.1l-3.8-22.5l-1.7,7.1v15.8C273.6,163.5,275.5,163.3,277.3,163.1z M279.8,125.7
	c1.7-0.9,3.4-1.9,4.8-3.2l-8.7-8.7l0.7,4.2L279.8,125.7z M280.8,128.1l0.8,1.9l0.1-2.4C281.4,127.8,281.1,128,280.8,128.1z
	 M279.2,130.9l-0.6-1.5l0.2,1.1L279.2,130.9z M279.6,135.7c0.2-0.1,0.4-0.1,0.6-0.2l-0.8-0.8L279.6,135.7z M291.1,159.7l-9.1-22.1
	c-0.6,0.2-1.3,0.4-1.9,0.6l4,23.6C286.5,161.3,288.8,160.5,291.1,159.7z M309.8,147.7l-11.2-11.2l-7.2-4.4c-2.2,1.8-4.6,3.3-7.2,4.5
	l9.1,22.1c4.3-1.9,8.2-4.3,11.9-7.1c0.8-1.7,2.4-3.1,4.2-3.6C309.6,147.9,309.7,147.8,309.8,147.7z M321.9,129.3l-21.4-8.9
	c-1.2,2.6-2.7,5-4.5,7.2l4.4,7.2l11.2,11.2c3-3.1,5.6-6.6,7.8-10.3h-2C317.4,132.7,319.3,130.2,321.9,129.3z M327,113.4h-5.2
	c0-2.3,1.1-4.3,2.8-5.5h-13l-8.2,1.9c-0.3,2.9-0.9,5.6-1.9,8.3l22.1,9.1c0.6-1.4,1-2.9,1.5-4.3c-1.9-1.2-3.2-3.3-3.2-5.8h4.6
	C326.7,115.9,326.9,114.6,327,113.4z M327.4,105.3c0-1.5-0.1-2.9-0.3-4.4c-0.9,0.4-1.8,0.6-2.9,0.6c-3.7,0-6.8-3-6.8-6.8h8.7
	c-0.2-0.9-0.4-1.8-0.6-2.7v2.7H323v-3.7h2.3l0,0h-7.8c0-1,0.2-2,0.6-2.8l-16.6,6.9c1,2.6,1.6,5.3,1.9,8.2l8.2,2H327.4z M311.4,164.9
	c3.7,0,6.8-3,6.8-6.8h-13.5C304.7,161.9,307.7,164.9,311.4,164.9z M325.5,139.3v-3.7h-2.6v3.7H325.5z M310.1,154.5v3.7h2.6v-3.7
	H310.1z M199,183.6h136.3v6.4H199h-4.4h-38.8h-4.4H14.9v-6.4h25.2l1.1-31.3c-1.7,1.2-3.7,1.9-5.9,1.9c-5.6,0-10.2-4.6-10.2-10.2
	c0-0.6,0.1-1.3,0.2-1.9c-0.1,0-0.1,0-0.2,0c-3.5,0-6.3-2.8-6.3-6.3c0-1.3,0.4-2.5,1-3.5c-2.9-1.8-4.9-5-4.9-8.7
	c0-5.5,4.3-9.9,9.8-10.2c-1.3-1.2-2.1-2.8-2.1-4.7c0-3.5,2.8-6.3,6.3-6.3c1,0,2,0.3,2.9,0.7c-0.3-0.7-0.4-1.4-0.4-2.2
	c0-3.5,2.8-6.3,6.3-6.3c2.3,0,4.3,1.2,5.4,3c1.8-2.9,5-4.8,8.7-4.8c2.9,0,5.5,1.2,7.3,3.1v-40l8.5-4.9v61.3c0.4,0.8,0.7,1.8,0.7,2.8
	c0,1-0.2,2-0.7,2.8v3.1c2.7,1.8,4.5,4.9,4.5,8.5c0,3.5-1.8,6.6-4.5,8.5v45.6h6.9v-15.1v-31.6l8.9-2.7V42l4.3-2.5l4.3,2.5v92.1
	l9.4,2.8v31.6v15.1h6.4V51.2l8.5,4.9v103.7l0.9-4.8h8.6v6.4h-9.5V174h9.5v6.4h-9.5v3.2h34.9v-3.2h-3.2V174h3.2v-3.2h-12.7v-6.4h12.7
	v-3.2h-3.2V155h3.2v-3.2h-12.7v-6.4h12.7v-0.9c0-0.8,0.1-1.5,0.3-2.3h-3.5v-6.4h8c1.6-1.3,3.6-2.3,5.9-3.2h-4.3v-6.4h15.9v4.2
	c0.5,0,1.1,0,1.6,0c0.5,0,1.1,0,1.6,0v-4.2h15.9v6.4h-4.3c2.3,0.9,4.3,1.9,5.9,3.2h8v6.4h-3.5c0.2,0.7,0.3,1.5,0.3,2.3v0.9h12.7v6.4
	H199v3.2h3.2v6.4H199v3.2h12.7v6.4H199v3.2h3.2v6.4H199V183.6z M26.1,130.5c-2.2-1.9-3.6-4.6-3.6-7.7c0-1.5,0.3-2.9,0.9-4.2
	c-2,1.1-3.4,3.2-3.4,5.6C20.1,127.6,22.7,130.3,26.1,130.5z M34.9,144.7c-2.1-1.9-3.4-4.6-3.4-7.6c0-1.5,0.3-2.9,0.9-4.2
	c-0.1,0-0.2,0-0.2,0c-1.9,1.1-3.2,3.1-3.2,5.5C29,141.7,31.6,144.5,34.9,144.7z M40.7,103.5c-0.7-0.2-1.4-0.4-2.1-0.4
	c-3.5,0-6.3,2.8-6.3,6.3c0,1.1,0.3,2.2,0.8,3.1c0,0,0.1,0,0.1,0C33.5,108.2,36.6,104.6,40.7,103.5z M50.6,183.6h8.6v-36.1
	c-1,0.7-2.2,1.1-3.5,1.1c-0.6,0-1.1-0.1-1.7-0.2c0,0.1,0,0.2,0,0.2c0,2.8-1.9,5.3-4.5,6.1L50.6,183.6z M194.5,183.6v-39.1
	c0-5.3-8.7-9.6-19.4-9.6s-19.4,4.3-19.4,9.6v39.1H194.5z M149.2,102.2v11h3.7v-11H149.2z M197.4,102.2v11h3.7v-11H197.4z
	 M205.3,161.3h15.9V155h-15.9V161.3z M230.7,164.5h-15.9v6.4h15.9V164.5z M119.5,170.9h15.9v-6.4h-15.9V170.9z M205.3,180.4h15.9
	V174h-15.9V180.4z M230.7,145.4h-15.9v6.4h15.9V145.4z M129.1,180.4h15.9V174h-15.9V180.4z M224.4,135.9v6.4h6.4l-1.1-6.4H224.4z
	 M224.4,155v6.4h9.7L233,155H224.4z M119.5,151.8h15.9v-6.4h-15.9V151.8z M144.9,155h-15.9v6.4h15.9V155z M119.5,142.3h6.4v-6.4
	h-5.2L119.5,142.3z M186.3,123.2h15.9v-6.4h-15.9V123.2z M205.3,123.2h15.9v-6.4h-15.9V123.2z M233.9,164.5v6.4h1.9l-1.1-6.4H233.9z
	 M236.3,174h-12v6.4h13.1L236.3,174z M183.1,116.8h-15.9v6.4h15.9V116.8z M129.1,123.2h15.9v-6.4h-15.9V123.2z M124,116.8l-1.1,6.4
	h3v-6.4H124z M148.1,123.2H164v-6.4h-15.9V123.2z M195.8,132.7h15.9v-6.4h-15.9V132.7z M221.2,135.9h-15.9v6.4h15.9V135.9z
	 M214.9,126.4v6.4h14.2l-1.1-6.4H214.9z M121.2,132.7h14.2v-6.4h-13.1L121.2,132.7z M144.9,135.9h-15.9v6.4h15.9V135.9z
	 M138.6,132.7h15.9v-6.4h-15.9V132.7z M134.2,80h5.9V47.5H135l-8.4,4.9v6.2l7.6-4.5V80z M163.6,52.7L149.9,80h6.5l13.7-28.5v-3.9
	h-21.8v5.1L163.6,52.7L163.6,52.7z M190.3,52.7L176.6,80h6.5l13.7-28.5v-3.9H175v5.1L190.3,52.7L190.3,52.7z M217.1,52.7L203.4,80
	h6.5l13.7-28.5v-3.9h-21.8v5.1L217.1,52.7L217.1,52.7z M67.7,24.3L56,31.1v22.4l11.7-6.8V24.3z M79.9,61.9V44.2l-4.3,2.5V24.3
	l-4.3,2.5V80l4.3-2.5L79.9,61.9z M119.6,31.1l-11.7-6.8v22.4l11.7,6.8V31.1z M96.3,39.9V17.6l-8.5-4.9l-8.5,4.9v22.4l8.5-4.9
	L96.3,39.9z M95.7,61.9l4.3,15.6l4.3,2.5V26.8l-4.3-2.5v22.3l-4.3-2.5V61.9z"/>
</svg>
