<?xml version="1.0" encoding="iso-8859-1"?>
<!-- Generator: Adobe Illustrator 19.0.0, SVG Export Plug-In . SVG Version: 6.00 Build 0)  -->
<svg version="1.1" id="Capa_1" xmlns="http://www.w3.org/2000/svg" xmlns:xlink="http://www.w3.org/1999/xlink" x="0px" y="0px"
	 viewBox="0 0 512 512" style="enable-background:new 0 0 512 512;" xml:space="preserve">
<g>
	<g>
		<path d="M509.071,416.233l-37.518-37.518c-0.006-0.006-0.011-0.013-0.018-0.019c-0.006-0.006-0.013-0.011-0.019-0.017
			L346.694,253.853l121.075-121.074c0.008-0.008,0.015-0.018,0.023-0.026c0.52-0.523,0.982-1.105,1.378-1.737
			c0.021-0.033,0.039-0.066,0.06-0.099c0.174-0.285,0.333-0.579,0.479-0.883c0.018-0.037,0.036-0.073,0.053-0.11
			c0.179-0.384,0.338-0.778,0.468-1.189l37.733-112.03c1.213-3.6,0.28-7.577-2.405-10.263c-2.687-2.686-6.661-3.618-10.264-2.406
			L383.1,41.825c-0.004,0.001-0.006,0.003-0.009,0.004c-0.358,0.12-0.706,0.261-1.042,0.419c-0.036,0.017-0.069,0.037-0.105,0.055
			c-0.29,0.14-0.571,0.292-0.844,0.458c-0.082,0.05-0.161,0.105-0.242,0.157c-0.221,0.144-0.436,0.294-0.644,0.453
			c-0.092,0.071-0.182,0.144-0.272,0.217c-0.191,0.158-0.375,0.323-0.554,0.494c-0.055,0.052-0.115,0.096-0.168,0.149
			L258.146,165.304L95.77,2.928c-3.906-3.905-10.237-3.904-14.143,0L2.93,81.625c-1.875,1.875-2.929,4.419-2.929,7.071
			c0,2.652,1.054,5.196,2.929,7.071l162.376,162.377l-0.003,0.003L19.107,404.341c-17.408,17.412-20.564,38.573-7.677,51.46
			l44.767,44.768c5.179,5.179,11.89,7.917,19.409,7.917c0.001,0,0.001,0,0.002,0c10.611,0,21.994-5.539,32.05-15.595l35.166-35.166
			l0.001-0.001c0-0.001,0.001-0.001,0.001-0.002l37.193-37.194c0.003-0.003,0.006-0.004,0.008-0.007s73.825-73.826,73.827-73.828
			l162.379,162.378c1.952,1.953,4.512,2.929,7.07,2.929c2.56,0,5.119-0.976,7.071-2.929l78.697-78.696
			c1.875-1.875,2.929-4.419,2.929-7.071C512,420.652,510.946,418.108,509.071,416.233z M482.575,29.425l-23.334,69.277
			c-3.067-2.791-6.696-5.303-10.848-7.448c-6.373-3.294-14.115-5.669-21.54-6.104c-0.435-7.426-2.81-15.168-6.104-21.543
			c-2.147-4.152-4.658-7.781-7.45-10.849L482.575,29.425z M24.143,88.696l64.556-64.555l20.018,20.018L85.661,67.214
			c-1.953,1.953-2.929,4.512-2.929,7.071c0,2.559,0.976,5.119,2.929,7.071c1.952,1.953,4.512,2.929,7.071,2.929
			c2.559,0,5.118-0.976,7.071-2.929l23.055-23.055l20.019,20.019l-14.016,14.019c-1.952,1.953-2.928,4.512-2.928,7.071
			c0,2.56,0.977,5.119,2.929,7.071c1.953,1.952,4.512,2.928,7.071,2.928s5.119-0.977,7.071-2.929l14.015-14.017l20.019,20.02
			l-14.016,14.015c-1.952,1.952-2.929,4.512-2.929,7.071c0,2.559,0.976,5.119,2.929,7.071c1.952,1.953,4.512,2.929,7.071,2.929
			s5.118-0.976,7.07-2.929l14.017-14.015l20.017,20.017l-23.053,23.053c-1.953,1.953-2.929,4.512-2.929,7.071
			s0.975,5.119,2.929,7.071c1.952,1.953,4.512,2.929,7.071,2.929s5.118-0.976,7.071-2.929l23.053-23.052l18.662,18.662
			l-64.554,64.554L24.143,88.696z M93.517,478.748c-6.098,6.097-12.792,9.737-17.908,9.737c0,0,0,0-0.001,0
			c-2.189,0-3.863-0.654-5.268-2.059l-44.768-44.767c-4.489-4.489-1.26-14.237,7.678-23.176l28.095-28.095l60.266,60.266
			L93.517,478.748z M135.754,436.511l-60.266-60.266l23.062-23.061l60.266,60.266L135.754,436.511z M172.957,399.307l-60.266-60.265
			c0.002-0.001,152.523-152.521,152.525-152.523c0.002-0.002,0.003-0.004,0.005-0.006L390.449,61.286
			c5.377,0.896,9.339,6.08,11.372,9.433c5.705,9.408,5.687,18.975,4.476,20.845L175.607,322.25c-3.905,3.905-3.905,10.237,0,14.142
			c1.953,1.953,4.512,2.929,7.071,2.929c2.559,0,5.118-0.977,7.07-2.929L420.385,105.76c1.938-1.265,11.495-1.282,20.9,4.422
			c3.351,2.033,8.529,5.991,9.428,11.367L172.957,399.307z M423.305,487.858L267.998,332.55l9.28-9.28l28.295,28.293
			c1.953,1.953,4.512,2.929,7.071,2.929c2.559,0,5.118-0.977,7.071-2.929c3.905-3.905,3.904-10.237-0.001-14.142l-28.295-28.293
			l41.132-41.132l15.29,15.29L333.824,297.3c-1.953,1.953-2.93,4.512-2.93,7.071c-0.001,2.559,0.976,5.119,2.928,7.071
			c1.953,1.953,4.512,2.93,7.072,2.93c2.559,0,5.118-0.976,7.07-2.928l14.018-14.015L382,317.446l-14.017,14.016
			c-1.952,1.953-2.929,4.512-2.929,7.071s0.976,5.118,2.929,7.071c1.953,1.953,4.512,2.929,7.071,2.929
			c2.559,0,5.118-0.977,7.07-2.929l14.017-14.017l20.019,20.019l-23.054,23.052c-1.952,1.953-2.929,4.512-2.929,7.071
			c0,2.56,0.976,5.119,2.929,7.071c1.952,1.953,4.512,2.929,7.071,2.929c2.559,0,5.118-0.977,7.07-2.929l23.054-23.053
			l20.019,20.018l-14.017,14.016c-1.952,1.953-2.929,4.512-2.929,7.071c0,2.56,0.976,5.119,2.929,7.071
			c1.952,1.953,4.512,2.929,7.071,2.929c2.559,0,5.118-0.977,7.07-2.929l14.017-14.016l23.394,23.394L423.305,487.858z"/>
	</g>
</g>
<g>
	<g>
		<path d="M169.198,342.836c-3.897-3.913-10.228-3.927-14.142-0.03l-0.562,0.559c-3.914,3.897-3.928,10.229-0.031,14.142
			c1.954,1.962,4.521,2.944,7.087,2.944c2.552,0,5.105-0.971,7.056-2.914l0.562-0.559
			C173.081,353.082,173.096,346.749,169.198,342.836z"/>
	</g>
</g>
<g>
	<g>
		<path d="M338.149,355.855l-0.548-0.547c-3.905-3.905-10.237-3.905-14.142,0c-3.904,3.905-3.904,10.237,0,14.143l0.548,0.547
			c1.952,1.953,4.512,2.929,7.071,2.929s5.118-0.976,7.071-2.929C342.053,366.093,342.053,359.761,338.149,355.855z"/>
	</g>
</g>
<g>
</g>
<g>
</g>
<g>
</g>
<g>
</g>
<g>
</g>
<g>
</g>
<g>
</g>
<g>
</g>
<g>
</g>
<g>
</g>
<g>
</g>
<g>
</g>
<g>
</g>
<g>
</g>
<g>
</g>
</svg>
