<?xml version="1.0" encoding="utf-8"?>
<!-- Generator: Adobe Illustrator 21.0.2, SVG Export Plug-In . SVG Version: 6.00 Build 0)  -->
<svg version="1.1" id="Слой_1" xmlns="http://www.w3.org/2000/svg" xmlns:xlink="http://www.w3.org/1999/xlink" x="0px" y="0px"
	 viewBox="0 0 302 110.7" style="enable-background:new 0 0 302 110.7;" xml:space="preserve">
<style type="text/css">
	.st0{opacity:7.000000e-02;enable-background:new    ;}
	.st1{fill:none;}
	.st2{fill:#FFFFFF;}
</style>
<g>
	<circle class="st0" cx="78.1" cy="31.2" r="1.9"/>
	<circle class="st0" cx="52.5" cy="31.2" r="1.9"/>
	<circle class="st0" cx="38.7" cy="54.3" r="1.9"/>
	<circle class="st0" cx="51.9" cy="77.2" r="1.9"/>
	<circle class="st0" cx="79" cy="77.2" r="1.9"/>
</g>
<g>
	<path class="st1" d="M89.2,53.1c-0.3-0.5-0.9-0.9-1.6-0.9H65.9c-1.1,0-1.9,0.9-1.9,1.9v5.6c0,1.1,0.9,1.9,1.9,1.9h13.5
		c1.4,0,2.3,1.6,1.6,2.8l-4.5,7.8c-0.3,0.5-0.9,0.9-1.6,0.9H55.4c-0.7,0-1.3-0.3-1.6-0.9L44,55.3c-0.3-0.6-0.3-1.3,0-1.9l9.8-16.9
		c0.3-0.5,0.9-0.9,1.6-0.9h19.5c0.7,0,1.3,0.3,1.6,0.9l3,5.2c0.3,0.5,0.9,0.9,1.6,0.9h6.5c1.4,0,2.3-1.6,1.6-2.8l-7.3-12.6
		c-0.3-0.5-0.9-0.9-1.6-0.9H50c-0.7,0-1.3,0.3-1.6,0.9L33.3,53.4c-0.3,0.6-0.3,1.3,0,1.9l15.1,26.2c0.3,0.5,0.9,0.9,1.6,0.9h30.3
		c0.7,0,1.3-0.3,1.6-0.9l11.3-19.7c0.3-0.5,0.3-1.3-0.1-1.9L89.2,53.1z"/>
	<path class="st2" d="M153,64.9c-1.7,0-3.1,0.6-4.2,1.7c-1.1,1.2-1.7,2.7-1.7,4.5c0,1.9,0.6,3.4,1.7,4.6c1.1,1.2,2.5,1.8,4.2,1.8
		c1.6,0,3-0.6,4.1-1.8c1.1-1.2,1.7-2.7,1.7-4.6c0-1.8-0.6-3.3-1.7-4.5C156.1,65.4,154.7,64.9,153,64.9z"/>
	<path class="st2" d="M140.5,32.9c-0.9,0-1.7,0.3-2.3,1c-0.6,0.6-0.9,1.5-0.9,2.5s0.3,1.9,0.9,2.5c0.6,0.6,1.4,1,2.3,1
		c0.9,0,1.7-0.3,2.3-1c0.6-0.7,0.9-1.5,0.9-2.5s-0.3-1.8-0.9-2.5C142.1,33.2,141.4,32.9,140.5,32.9z"/>
	<path class="st2" d="M184.2,32.9c-0.9,0-1.7,0.3-2.3,1c-0.6,0.6-0.9,1.5-0.9,2.5s0.3,1.9,0.9,2.5c0.6,0.6,1.4,0.9,2.3,0.9
		c0.9,0,1.7-0.3,2.3-1c0.6-0.6,0.9-1.5,0.9-2.5s-0.3-1.8-0.9-2.5C185.9,33.2,185.1,32.9,184.2,32.9z"/>
	<path class="st2" d="M178.8,64.9c-1.7,0-3,0.6-4.1,1.8c-1.1,1.2-1.6,2.7-1.6,4.5c0,1.9,0.6,3.4,1.7,4.6c1.1,1.2,2.5,1.8,4.1,1.8
		c1.7,0,3.1-0.6,4.2-1.8c1.1-1.2,1.7-2.7,1.7-4.6c0-1.9-0.6-3.4-1.7-4.5C181.9,65.4,180.5,64.9,178.8,64.9z"/>
	<path class="st2" d="M102.8,32.4c0.3-0.1,0.5-0.3,0.7-0.5c0.2-0.2,0.3-0.6,0.3-0.9c0-0.6-0.2-1.1-0.7-1.3c-0.3-0.2-1-0.3-1.9-0.3
		h-0.9v3.3h1C102,32.5,102.5,32.5,102.8,32.4z"/>
	<path class="st2" d="M154.7,39.9c0.9,0,1.7-0.3,2.3-1c0.6-0.6,0.9-1.5,0.9-2.5s-0.3-1.9-0.9-2.5c-0.6-0.6-1.4-1-2.3-1
		c-0.9,0-1.7,0.3-2.3,1c-0.6,0.6-0.9,1.5-0.9,2.5s0.3,1.9,0.9,2.5C153.1,39.6,153.8,39.9,154.7,39.9z"/>
	<path class="st2" d="M213,38.9c0.6-0.6,0.9-1.5,0.9-2.5s-0.3-1.9-0.9-2.5c-0.6-0.6-1.4-1-2.3-1c-0.9,0-1.7,0.3-2.3,1
		c-0.6,0.6-0.9,1.5-0.9,2.5s0.3,1.9,0.9,2.5c0.6,0.7,1.4,1,2.3,1C211.6,39.9,212.4,39.6,213,38.9z"/>
	<path class="st2" d="M107.8,64.9c-1.7,0-3,0.6-4.1,1.8c-1.1,1.2-1.6,2.7-1.6,4.5c0,1.9,0.6,3.4,1.7,4.6c1.1,1.2,2.5,1.8,4.1,1.8
		c1.7,0,3.1-0.6,4.2-1.8c1.1-1.2,1.7-2.7,1.7-4.6c0-1.9-0.6-3.4-1.7-4.5C110.9,65.4,109.5,64.9,107.8,64.9z"/>
	<path class="st2" d="M115,32.8c-0.9,0-1.7,0.3-2.3,1c-0.6,0.6-0.9,1.5-0.9,2.5s0.3,1.9,0.9,2.5c0.6,0.7,1.4,1,2.3,1
		c0.9,0,1.7-0.3,2.3-1c0.6-0.6,0.9-1.5,0.9-2.5s-0.3-1.9-0.9-2.5C116.8,33.2,115.9,32.8,115,32.8z"/>
	<path class="st2" d="M173.1,36.4c0-1-0.3-1.8-0.9-2.4c-0.6-0.6-1.4-1-2.3-1c-0.9,0-1.7,0.3-2.3,1c-0.6,0.6-0.9,1.5-0.9,2.4
		c0,1,0.3,1.9,0.9,2.5c0.6,0.6,1.4,0.9,2.3,0.9c0.9,0,1.7-0.3,2.3-0.9C172.8,38.4,173.1,37.5,173.1,36.4z"/>
	<path class="st2" d="M259.2,34.7c0.3-0.2,0.4-0.5,0.4-0.8c0-0.4-0.1-0.8-0.4-1s-0.6-0.4-0.9-0.4h-0.4h-1v2.6h1.1
		C258.6,35.1,258.9,35,259.2,34.7z"/>
	<path class="st2" d="M258.2,37.4H257v2.7h1.5c0.6,0,1-0.1,1.2-0.4c0.2-0.3,0.3-0.6,0.3-0.8c0-0.4-0.1-0.7-0.4-1
		C259.3,37.6,258.9,37.4,258.2,37.4z"/>
	<path class="st2" d="M288.5,0H13.6C6.2,0,0.1,6,0.1,13.5V97c0,7.4,6,13.5,13.5,13.5h274.9c7.4,0,13.5-6,13.5-13.5V13.5
		C302,6,296,0,288.5,0z M150.2,31.9c1.1-1.2,2.4-1.7,4-1.7c0.7,0,1.4,0.1,2,0.4c0.6,0.3,1.2,0.7,1.7,1.2v-1.3h3v12h-3v-1.2
		c-0.6,0.5-1.2,0.9-1.7,1.2c-0.6,0.2-1.2,0.4-1.9,0.4c-1.5,0-2.8-0.6-4-1.8c-1.1-1.2-1.7-2.6-1.7-4.5
		C148.6,34.5,149.1,33.1,150.2,31.9z M128.1,37.7c-0.3-0.3-0.7-0.4-1.1-0.4h-0.8v-2.1h0.6c0.4,0,0.7-0.1,1-0.3
		c0.3-0.2,0.4-0.5,0.4-0.9c0-0.4-0.1-0.7-0.4-0.9c-0.3-0.2-0.6-0.4-1-0.4c-0.5,0-1.1,0.2-1.8,0.7l-1.2-2c1-0.8,2.2-1.2,3.4-1.2
		c1.1,0,2.1,0.3,2.9,0.9c0.8,0.6,1.1,1.4,1.1,2.4s-0.5,1.9-1.6,2.5c1.5,0.5,2.2,1.5,2.2,2.9c0,1.1-0.4,1.9-1.2,2.6
		c-0.8,0.7-2,1-3.4,1c-1.6,0-2.9-0.4-4.1-1.3l1.6-2.1c0.7,0.5,1.4,0.8,2,0.8c0.5,0,0.9-0.1,1.2-0.4c0.3-0.2,0.4-0.6,0.4-0.9
		C128.5,38.3,128.4,38,128.1,37.7z M97.1,26.2h3.2c1.7,0,3,0.2,3.8,0.5c0.8,0.3,1.4,0.8,1.8,1.6c0.4,0.8,0.7,1.6,0.7,2.6
		c0,1.1-0.3,2-0.9,2.8c-0.6,0.7-1.4,1.2-2.4,1.5c-0.6,0.2-1.6,0.2-3.2,0.2v6.8h-3V26.2z M93.2,61.8L81.9,81.5
		c-0.3,0.6-0.9,0.9-1.6,0.9H50c-0.7,0-1.3-0.4-1.6-0.9L33.3,55.3c-0.3-0.6-0.3-1.3,0-1.9l15.1-26.2c0.3-0.6,0.9-0.9,1.6-0.9h30.3
		c0.7,0,1.3,0.4,1.6,0.9l7.3,12.6c0.7,1.2-0.2,2.8-1.6,2.8h-6.5c-0.7,0-1.3-0.4-1.6-0.9l-3-5.2c-0.3-0.6-0.9-0.9-1.6-0.9H55.4
		c-0.7,0-1.3,0.4-1.6,0.9L44,53.4c-0.3,0.6-0.3,1.3,0,1.9l9.8,16.9c0.3,0.6,0.9,0.9,1.6,0.9h19.5c0.7,0,1.3-0.4,1.6-0.9l4.5-7.8
		c0.7-1.2-0.2-2.8-1.6-2.8H65.9c-1,0-1.9-0.8-1.9-1.9v-5.6c0-1,0.8-1.9,1.9-1.9h21.7c0.7,0,1.3,0.4,1.6,0.9l3.9,6.8
		C93.5,60.5,93.5,61.3,93.2,61.8z M118.9,81.9h-5.4v-2.3c-1,1-2.1,1.7-3.2,2.2s-2.2,0.7-3.4,0.7c-2.8,0-5.2-1.1-7.2-3.2
		c-2-2.1-3-4.8-3-8c0-3.3,1-6,2.9-8.1c2-2.1,4.3-3.2,7.1-3.2c1.3,0,2.5,0.2,3.6,0.7s2.2,1.2,3.1,2.2v-2.4h5.4V81.9z M121.2,42.4h-3
		v-1.2c-0.6,0.5-1.2,0.9-1.7,1.2c-0.6,0.2-1.2,0.4-1.9,0.4c-1.5,0-2.8-0.6-4-1.8c-1.1-1.2-1.7-2.6-1.7-4.5c0-2,0.5-3.4,1.6-4.7
		s2.4-1.7,4-1.7c0.7,0,1.4,0.1,2,0.4s1.2,0.7,1.7,1.2v-1.3h3V42.4z M135.7,80.5c-1.4,1.3-3.3,1.9-5.6,1.9c-3.1,0-5.6-1.2-7.5-3.7
		l3.3-3.6c0.6,0.7,1.4,1.3,2.2,1.8c0.8,0.5,1.6,0.7,2.3,0.7c0.7,0,1.3-0.2,1.7-0.5c0.4-0.3,0.6-0.7,0.6-1.2c0-0.8-0.8-1.6-2.3-2.4
		l-1.8-0.9c-3.5-1.7-5.2-3.9-5.2-6.6c0-1.7,0.7-3.1,2-4.3c1.3-1.2,3-1.8,5-1.8c1.4,0,2.7,0.3,3.9,0.9c1.2,0.6,2.3,1.5,3.1,2.6
		l-3.3,3.3c-1.4-1.3-2.6-2-3.7-2c-0.6,0-1.1,0.1-1.4,0.4s-0.5,0.6-0.5,1c0,0.3,0.1,0.6,0.3,0.8c0.2,0.2,0.8,0.6,1.6,1l2,1
		c2.1,1,3.5,2.1,4.3,3.1c0.8,1.1,1.2,2.3,1.2,3.7C137.8,77.7,137.1,79.2,135.7,80.5z M139,42.2c-0.6-0.2-1.2-0.6-1.7-1.2v9.7h-2.9
		V30.5h2.9v1.3c0.5-0.5,1.1-0.9,1.7-1.2c0.6-0.3,1.3-0.4,2-0.4c1.5,0,2.8,0.6,4,1.7c1.1,1.2,1.6,2.7,1.6,4.6c0,1.8-0.6,3.2-1.7,4.5
		c-1.1,1.1-2.4,1.7-4,1.7C140.3,42.6,139.6,42.5,139,42.2z M161.2,79.2c-2,2.1-4.4,3.2-7.2,3.2c-1.2,0-2.4-0.2-3.4-0.7
		c-1.1-0.4-2.1-1.2-3.2-2.2v10.1H142V60.5h5.3v2.4c1-1,2-1.7,3.2-2.2s2.3-0.7,3.6-0.7c2.8,0,5.2,1.1,7.1,3.2s2.9,4.8,2.9,8.1
		C164.2,74.4,163.2,77.1,161.2,79.2z M164,38.3c-0.3-1.2-0.5-2.5-0.5-4c-0.1-1.9,0.1-3.3,0.6-4.5c0.4-1.1,1-1.9,1.7-2.5
		c0.7-0.6,1.6-0.9,2.5-1.1s2.3-0.3,4.3-0.4c1.2-0.1,2.2-0.1,2.8-0.2v2.8c-0.8,0.1-1.7,0.1-2.5,0.2c-1.4,0-2.5,0.1-3.3,0.2
		c-0.7,0.1-1.4,0.4-1.9,0.8c-0.6,0.4-1,0.9-1.2,1.4c-0.2,0.5-0.4,1.3-0.4,2.3c0.9-2,2.3-3.1,4.5-3.1c1.5,0,2.8,0.6,4.1,1.7
		c1.1,1.1,1.7,2.6,1.7,4.4c0,1.8-0.6,3.3-1.8,4.6c-1.2,1.2-2.7,1.8-4.5,1.8c-1.4,0-2.7-0.4-3.8-1.3C165,40.5,164.3,39.5,164,38.3z
		 M189.9,81.9h-5.4v-2.3c-1,1-2.1,1.7-3.2,2.2s-2.2,0.7-3.4,0.7c-2.8,0-5.2-1.1-7.2-3.2c-2-2.1-3-4.8-3-8c0-3.3,1-6,2.9-8.1
		s4.3-3.2,7.1-3.2c1.3,0,2.5,0.2,3.6,0.7s2.2,1.2,3.1,2.2v-2.4h5.4V81.9z M189.7,39.6c-0.6,1-1.3,1.7-2.3,2.3c-1,0.5-2,0.8-3.1,0.8
		c-1.7,0-3.1-0.6-4.4-1.8c-1.2-1.2-1.8-2.7-1.8-4.5c-0.1-1.9,0.6-3.4,2-4.7c1.2-1.1,2.5-1.6,4.2-1.6c1.1,0,2.2,0.3,3.1,0.8
		c1,0.6,1.7,1.3,2.3,2.3c0.5,1,0.8,2,0.8,3.1C190.5,37.6,190.2,38.6,189.7,39.6z M191.8,30.5H203v2.8h-4v9.1h-3v-9.1h-4.2V30.5z
		 M204.5,65.1h-3.2v16.8h-5.4V65.1h-2.8v-4.6h2.8v-7.9h5.4v7.9h3.2V65.1z M204.4,36.5c0-2,0.6-3.4,1.6-4.7c1.1-1.2,2.4-1.7,4-1.7
		c0.7,0,1.4,0.1,2,0.4s1.2,0.7,1.7,1.2v-1.3h3v12h-3v-1.2c-0.6,0.5-1.2,0.9-1.7,1.2c-0.6,0.2-1.2,0.4-1.9,0.4c-1.5,0-2.8-0.6-4-1.8
		S204.4,38.4,204.4,36.5z M213.5,75.8c1.2,1.2,2.8,1.7,4.7,1.7c2.4,0,4.3-0.8,5.6-2.5l4.2,2.9c-2.3,3-5.5,4.5-9.7,4.5
		c-3.8,0-6.7-1.1-8.9-3.3c-2.1-2.2-3.2-4.8-3.2-7.8c0-2.1,0.5-4,1.6-5.7c1-1.7,2.5-3.1,4.3-4.1c1.9-1,3.9-1.5,6.2-1.5
		c2.1,0,4,0.4,5.7,1.3c1.7,0.8,3.1,2.1,4.2,3.6l-4.5,2.5c-0.8-0.9-1.7-1.5-2.5-1.8c-0.8-0.3-1.8-0.5-2.9-0.5c-2,0-3.6,0.6-4.9,1.8
		s-1.9,2.7-1.9,4.6C211.8,73.1,212.3,74.6,213.5,75.8z M230.2,42.3h-3v-5h-4.5v5h-3V30.5h3v4.3h4.5v-4.3h3V42.3z M234.7,31.8
		c1.2-1.1,2.5-1.6,4.2-1.6c1.1,0,2.2,0.3,3.1,0.8c1,0.6,1.7,1.3,2.3,2.3c0.5,1,0.8,2,0.8,3.1c0,1.1-0.3,2.1-0.8,3.1
		c-0.5,1-1.3,1.7-2.3,2.3c-1,0.5-2,0.8-3.1,0.8c-1.7,0-3.1-0.6-4.4-1.8c-1.2-1.2-1.8-2.7-1.8-4.5C232.6,34.5,233.3,33,234.7,31.8z
		 M252.2,81.9h-5.3v-9.4c0-2.5-0.1-4.2-0.4-5c-0.2-0.9-0.6-1.5-1.2-2c-0.6-0.4-1.3-0.6-2.1-0.6c-1.1,0-2,0.4-2.8,1.1
		c-0.8,0.7-1.3,1.7-1.6,3c-0.2,0.6-0.2,2.1-0.2,4.4v8.6h-5.3V52.2h5.3v10.4c1.1-0.9,2.1-1.6,3.2-2c1.1-0.5,2.1-0.7,3.2-0.7
		c2.1,0,3.9,0.7,5.4,2.2c1.2,1.3,1.9,3.1,1.9,5.6V81.9z M262.2,81.9h-5.4V60.5h5.4V81.9z M261.9,57.6c-0.7,0.7-1.5,1-2.4,1
		c-1,0-1.8-0.3-2.4-1c-0.7-0.7-1-1.5-1-2.5c0-0.9,0.3-1.8,1-2.4s1.5-1,2.4-1s1.8,0.3,2.4,1c0.7,0.7,1,1.5,1,2.5
		C262.9,56.1,262.6,56.9,261.9,57.6z M262.7,41.1c-0.4,0.5-0.9,0.9-1.6,1c-0.6,0.2-1.5,0.3-2.6,0.3h-4.6v-12h0h4.8
		c1.6,0,2.6,0.3,3.2,0.9c0.6,0.6,0.8,1.3,0.8,2.1c0,1.1-0.6,2-1.7,2.5c1.6,0.5,2.3,1.5,2.3,3C263.3,39.9,263.1,40.6,262.7,41.1z"/>
	<path class="st2" d="M238.9,39.9c0.9,0,1.7-0.3,2.3-1c0.6-0.6,0.9-1.5,0.9-2.5s-0.3-1.8-0.9-2.5c-0.6-0.6-1.4-0.9-2.3-0.9
		c-0.9,0-1.7,0.3-2.3,1c-0.6,0.6-0.9,1.5-0.9,2.5s0.3,1.9,0.9,2.5C237.2,39.6,237.9,39.9,238.9,39.9z"/>
</g>
</svg>
