<?xml version="1.0" encoding="utf-8"?>
<!-- Generator: Adobe Illustrator 21.0.2, SVG Export Plug-In . SVG Version: 6.00 Build 0)  -->
<svg version="1.1" id="Слой_1" xmlns="http://www.w3.org/2000/svg" xmlns:xlink="http://www.w3.org/1999/xlink" x="0px" y="0px"
	 viewBox="0 0 20 20" style="enable-background:new 0 0 20 20;" xml:space="preserve">
<style type="text/css">
	.st0{fill:#FFFFFF;}
</style>
<path class="st0" d="M11.1,13.3c0.8-0.2,1.6-0.5,2.3-1c0.5-0.3,0.7-1.1,0.4-1.6c-0.3-0.5-1.1-0.7-1.6-0.4c-1.6,1-3.8,1-5.4,0
	c-0.5-0.3-1.3-0.2-1.6,0.4C4.8,11.3,5,12,5.5,12.3c0.7,0.5,1.5,0.8,2.3,1l-2.2,2.2c-0.5,0.5-0.5,1.2,0,1.7c0.2,0.2,0.5,0.3,0.8,0.3
	c0.3,0,0.6-0.1,0.8-0.3L9.5,15l2.2,2.2c0.5,0.5,1.2,0.5,1.7,0c0.5-0.5,0.5-1.2,0-1.7L11.1,13.3z M9.5,10c2.2,0,4-1.8,4-4
	c0-2.2-1.8-4-4-4c-2.2,0-4,1.8-4,4C5.5,8.2,7.3,10,9.5,10z M9.5,4.4c0.9,0,1.7,0.7,1.7,1.7c0,0.9-0.7,1.7-1.7,1.7
	C8.6,7.7,7.8,6.9,7.8,6C7.8,5.1,8.6,4.4,9.5,4.4z"/>
</svg>
