<?xml version="1.0" encoding="utf-8"?>
<!-- Generator: Adobe Illustrator 21.0.2, SVG Export Plug-In . SVG Version: 6.00 Build 0)  -->
<svg version="1.1" id="Слой_1" xmlns="http://www.w3.org/2000/svg" xmlns:xlink="http://www.w3.org/1999/xlink" x="0px" y="0px"
	 viewBox="0 0 20 20" style="enable-background:new 0 0 20 20;" xml:space="preserve">
<style type="text/css">
	.st0{fill:#FFFFFF;}
</style>
<path class="st0" d="M19,4.7c-0.7,0.3-1.4,0.5-2.1,0.6c0.8-0.5,1.3-1.2,1.6-2C17.8,3.7,17,4,16.2,4.2C15.5,3.4,14.5,3,13.5,3
	c-2,0-3.7,1.7-3.7,3.7c0,0.3,0,0.6,0.1,0.8C6.8,7.4,4.1,5.9,2.3,3.7C1.9,4.2,1.8,4.9,1.8,5.5c0,1.3,0.7,2.4,1.6,3.1
	c-0.6,0-1.2-0.2-1.7-0.5c0,0,0,0,0,0c0,1.8,1.3,3.3,3,3.6c-0.3,0.1-0.6,0.1-1,0.1c-0.2,0-0.5,0-0.7-0.1c0.5,1.5,1.8,2.5,3.4,2.6
	c-1.3,1-2.9,1.6-4.6,1.6C1.6,16,1.3,16,1,16c1.6,1,3.6,1.7,5.7,1.7c6.8,0,10.5-5.6,10.5-10.5c0-0.2,0-0.3,0-0.5
	C17.9,6.1,18.5,5.5,19,4.7"/>
</svg>
