<?xml version="1.0" encoding="utf-8"?>
<!-- Generator: Adobe Illustrator 21.0.2, SVG Export Plug-In . SVG Version: 6.00 Build 0)  -->
<svg version="1.1" id="Слой_1" xmlns="http://www.w3.org/2000/svg" xmlns:xlink="http://www.w3.org/1999/xlink" x="0px" y="0px"
	 viewBox="0 0 20 20" style="enable-background:new 0 0 20 20;" xml:space="preserve">
<style type="text/css">
	.st0{fill:#FFFFFF;}
</style>
<path class="st0" d="M19.9,14.3c0-0.1,0-0.1-0.1-0.1c-0.3-0.6-1-1.4-2-2.3l0,0l0,0l0,0h0c-0.4-0.4-0.7-0.7-0.8-0.9
	c-0.2-0.3-0.3-0.6-0.1-0.8c0.1-0.2,0.4-0.7,0.9-1.4c0.3-0.4,0.5-0.7,0.7-0.9c1.2-1.6,1.7-2.6,1.6-3.1l-0.1-0.1
	c0-0.1-0.1-0.1-0.3-0.2c-0.2-0.1-0.4-0.1-0.7,0l-3,0c0,0-0.1,0-0.2,0c-0.1,0-0.1,0-0.1,0l-0.1,0l0,0c0,0-0.1,0.1-0.1,0.1
	c0,0.1-0.1,0.1-0.1,0.2c-0.3,0.8-0.7,1.6-1.1,2.3c-0.3,0.4-0.5,0.8-0.7,1.1c-0.2,0.3-0.4,0.5-0.5,0.7c-0.1,0.1-0.3,0.3-0.4,0.4
	c-0.1,0.1-0.2,0.1-0.3,0.1c-0.1,0-0.1,0-0.2,0c-0.1-0.1-0.2-0.1-0.2-0.3c-0.1-0.1-0.1-0.2-0.1-0.4c0-0.2,0-0.3,0-0.4
	c0-0.1,0-0.3,0-0.5c0-0.2,0-0.4,0-0.4c0-0.3,0-0.6,0-0.9c0-0.3,0-0.6,0-0.7c0-0.2,0-0.4,0-0.6c0-0.2,0-0.4,0-0.5
	c0-0.1-0.1-0.2-0.1-0.3c0-0.1-0.1-0.2-0.2-0.2c-0.1-0.1-0.2-0.1-0.3-0.1C10.7,4.1,10.2,4,9.6,4C8.3,4,7.5,4.1,7.1,4.3
	C7,4.3,6.9,4.4,6.7,4.6C6.6,4.7,6.6,4.8,6.7,4.8C7.1,4.9,7.4,5,7.6,5.3l0.1,0.1c0,0.1,0.1,0.2,0.1,0.5c0,0.2,0.1,0.5,0.1,0.8
	c0,0.5,0,0.9,0,1.3c0,0.4-0.1,0.6-0.1,0.8c0,0.2-0.1,0.4-0.1,0.5C7.6,9.4,7.5,9.5,7.5,9.5c0,0,0,0-0.1,0.1c-0.1,0-0.2,0.1-0.3,0.1
	c-0.1,0-0.2,0-0.4-0.1C6.7,9.4,6.5,9.2,6.4,9C6.2,8.9,6.1,8.6,5.9,8.3C5.7,8,5.5,7.7,5.3,7.3L5.1,6.9C5,6.8,4.9,6.5,4.7,6.1
	C4.5,5.7,4.4,5.4,4.2,5C4.2,4.9,4.1,4.8,4,4.7l-0.1,0c0,0-0.1-0.1-0.2-0.1c-0.1,0-0.2-0.1-0.2-0.1l-2.9,0c-0.3,0-0.5,0.1-0.6,0.2
	l0,0.1c0,0,0,0.1,0,0.2C0,5,0,5.1,0.1,5.2c0.4,1,0.9,1.9,1.4,2.8C1.9,9,2.3,9.7,2.7,10.3c0.4,0.6,0.7,1.1,1.1,1.6
	c0.4,0.5,0.6,0.8,0.7,0.9c0.1,0.1,0.2,0.2,0.3,0.3l0.3,0.3c0.2,0.2,0.4,0.4,0.7,0.6c0.3,0.2,0.7,0.5,1.1,0.7
	c0.4,0.2,0.8,0.4,1.4,0.6c0.5,0.1,1,0.2,1.5,0.2H11c0.2,0,0.4-0.1,0.6-0.2l0-0.1c0,0,0.1-0.1,0.1-0.2c0-0.1,0-0.2,0-0.3
	c0-0.3,0-0.6,0.1-0.8c0.1-0.2,0.1-0.4,0.2-0.5c0.1-0.1,0.1-0.2,0.2-0.3c0.1-0.1,0.1-0.1,0.2-0.2c0,0,0.1,0,0.1,0
	c0.2-0.1,0.4,0,0.6,0.2c0.2,0.2,0.4,0.4,0.6,0.6c0.2,0.2,0.4,0.5,0.7,0.8c0.3,0.3,0.5,0.5,0.7,0.7l0.2,0.1c0.1,0.1,0.3,0.2,0.5,0.2
	c0.2,0.1,0.4,0.1,0.6,0.1l2.7,0c0.3,0,0.5,0,0.6-0.1c0.1-0.1,0.2-0.2,0.3-0.3c0-0.1,0-0.2,0-0.4C19.9,14.4,19.9,14.4,19.9,14.3
	L19.9,14.3z"/>
</svg>
