<?xml version="1.0" encoding="utf-8"?>
<!-- Generator: Adobe Illustrator 21.0.2, SVG Export Plug-In . SVG Version: 6.00 Build 0)  -->
<svg version="1.1" id="Слой_1" xmlns="http://www.w3.org/2000/svg" xmlns:xlink="http://www.w3.org/1999/xlink" x="0px" y="0px"
	 viewBox="0 0 20 20" style="enable-background:new 0 0 20 20;" xml:space="preserve">
<style type="text/css">
	.st0{fill:#FFFFFF;}
</style>
<path class="st0" d="M7.5,12.2l0-5.4l5.1,2.7L7.5,12.2L7.5,12.2z M18.8,5.9c0,0-0.2-1.3-0.8-1.9c-0.7-0.8-1.5-0.8-1.9-0.8
	C13.5,3,9.5,3,9.5,3h0c0,0-4,0-6.6,0.2c-0.4,0-1.2,0-1.9,0.8C0.4,4.6,0.2,5.9,0.2,5.9S0,7.5,0,9v1.5c0,1.5,0.2,3.1,0.2,3.1
	s0.2,1.3,0.8,1.9c0.7,0.8,1.7,0.7,2.1,0.8c1.5,0.1,6.5,0.2,6.5,0.2s4,0,6.7-0.2c0.4,0,1.2,0,1.9-0.8c0.6-0.6,0.8-1.9,0.8-1.9
	S19,12,19,10.5V9C19,7.5,18.8,5.9,18.8,5.9L18.8,5.9z"/>
</svg>
