<?xml version="1.0" encoding="utf-8"?>
<!-- Generator: Adobe Illustrator 21.0.2, SVG Export Plug-In . SVG Version: 6.00 Build 0)  -->
<svg version="1.1" id="Layer_1" xmlns="http://www.w3.org/2000/svg" xmlns:xlink="http://www.w3.org/1999/xlink" x="0px" y="0px"
	 viewBox="0 0 512 512" style="enable-background:new 0 0 512 512;" xml:space="preserve">
<g>
	<g>
		<path d="M509.5,151.1c1.6-1.6,2.5-3.8,2.5-6V42.7c0-4.7-3.8-8.5-8.5-8.5h-34.1c-4.7,0-8.5,3.8-8.5,8.5v34.1h-8.5V42.7
			c0-4.7-3.8-8.5-8.5-8.5h-34.1c-4.7,0-8.5,3.8-8.5,8.5v34.1h-8.5V42.7c0-4.7-3.8-8.5-8.5-8.5h-34.1c-4.7,0-8.5,3.8-8.5,8.5v102.4
			c0,2.3,0.9,4.4,2.5,6l23.1,23.1v30.6H145.1v-30.6l23.1-23.1c1.6-1.6,2.5-3.8,2.5-6V42.7c0-4.7-3.8-8.5-8.5-8.5H128
			c-4.7,0-8.5,3.8-8.5,8.5v34.1H111V42.7c0-4.7-3.8-8.5-8.5-8.5H68.3c-4.7,0-8.5,3.8-8.5,8.5v34.1h-8.5V42.7c0-4.7-3.8-8.5-8.5-8.5
			H8.5C3.8,34.1,0,38,0,42.7v102.4c0,2.3,0.9,4.4,2.5,6l23.1,23.1v206.3L2.5,403.6c-1.6,1.6-2.5,3.8-2.5,6v59.7
			c0,4.7,3.8,8.5,8.5,8.5h128h25.6h34.1h119.5h34.1h25.8h127.8c4.7,0,8.5-3.8,8.5-8.5v-59.7c0-2.3-0.9-4.4-2.5-6l-23.1-23.1V174.2
			L509.5,151.1z M153.6,460.8h-17.1H17.1v-47.7L40.2,390c1.6-1.6,2.5-3.8,2.5-6V170.7c0-2.3-0.9-4.4-2.5-6l-23.1-23.1V51.2h17.1
			v34.1c0,4.7,3.8,8.5,8.5,8.5h25.6c4.7,0,8.5-3.8,8.5-8.5V51.2h17.1v34.1c0,4.7,3.8,8.5,8.5,8.5H128c4.7,0,8.5-3.8,8.5-8.5V51.2
			h17.1v90.3l-23.1,23.1c-1.6,1.6-2.5,3.8-2.5,6V384c0,2.3,0.9,4.4,2.5,6l23.1,23.1V460.8z M307.2,460.8H204.8V349.9
			c0-23.5,19.1-42.7,42.7-42.7h17.1c23.5,0,42.7,19.1,42.7,42.7v110.9H307.2z M343.8,403.6c-1.6,1.6-2.5,3.8-2.5,6v51.2h-17.1V349.9
			c0-32.9-26.8-59.7-59.7-59.7h-17.1c-32.9,0-59.7,26.8-59.7,59.7v110.9h-17.1v-51.2c0-2.3-0.9-4.4-2.5-6L145,380.5V221.9h221.9
			v158.6L343.8,403.6z M471.8,390l23.1,23.1v47.7H375.6h-17.2v-47.7l23.1-23.1c1.6-1.6,2.5-3.8,2.5-6V170.7c0-2.3-0.9-4.4-2.5-6
			l-23.1-23.1V51.2h17.1v34.1c0,4.7,3.8,8.5,8.5,8.5h25.6c4.7,0,8.5-3.8,8.5-8.5V51.2h17.1v34.1c0,4.7,3.8,8.5,8.5,8.5h25.6
			c4.7,0,8.5-3.8,8.5-8.5V51.2h17.1v90.3l-23.1,23.1c-1.6,1.6-2.5,3.8-2.5,6V384C469.3,386.3,470.2,388.4,471.8,390z"/>
	</g>
</g>
<g>
	<g>
		<path d="M85.3,204.5c-4.7,0-8.5,3.8-8.5,8.5v136.8c0,4.7,3.8,8.5,8.5,8.5s8.5-3.8,8.5-8.5V213.1C93.9,208.4,90,204.5,85.3,204.5z"
			/>
	</g>
</g>
<g>
	<g>
		<path d="M426.7,204.5c-4.7,0-8.5,3.8-8.5,8.5v136.8c0,4.7,3.8,8.5,8.5,8.5s8.5-3.8,8.5-8.5V213.1
			C435.2,208.4,431.4,204.5,426.7,204.5z"/>
	</g>
</g>
</svg>
