<?xml version="1.0" encoding="utf-8"?>
<!-- Generator: Adobe Illustrator 21.0.2, SVG Export Plug-In . SVG Version: 6.00 Build 0)  -->
<svg version="1.1" id="Layer_1" xmlns="http://www.w3.org/2000/svg" xmlns:xlink="http://www.w3.org/1999/xlink" x="0px" y="0px"
	 viewBox="0 0 344.8 344.8" style="enable-background:new 0 0 344.8 344.8;" xml:space="preserve">
<g>
	<g>
		<path d="M254.7,222.2l-43.4-9.7v-13.7c16.8-12.1,27.8-31.8,27.8-54v-33.3h5.6V66c0-4.8-0.8-9.4-2.3-13.8l24.5-7.2v23
			c-6.5,2.3-11.1,8.4-11.1,15.6v16.7h33.3V83.7c0-7.2-4.7-13.3-11.1-15.6V41.8l6.9-2L172.4,0L59.9,39.7l42.6,12.5
			c-1.5,4.4-2.3,9-2.3,13.8v45.4h5.6v33.3c0,22.2,11,41.9,27.8,54v13.7L90.2,222c-33.3,7.4-56.6,36.4-56.6,70.5v52.1h277.8v-52.1
			C311.3,258.6,288,229.6,254.7,222.2z M272.4,78.1c3.1,0,5.6,2.5,5.6,5.6v5.6l0,0h-11.1v-5.6C266.8,80.6,269.3,78.1,272.4,78.1z
			 M96,38.8l76.4-27l76.4,27l-11.4,3.3c-1.6-2.4-3.4-4.7-5.5-6.8l-1.6-1.6H114.5l-1.6,1.6c-2.1,2.1-3.9,4.4-5.5,6.8L96,38.8z
			 M111.3,66.1L111.3,66.1c0-7.9,2.8-15.4,8-21.3h106.3c5.1,5.9,8,13.4,8,21.3v34.3H228H116.8h-5.6L111.3,66.1L111.3,66.1z
			 M116.8,144.8v-33.3h111.1v33.3c0,30.6-24.9,55.6-55.6,55.6C141.8,200.3,116.8,175.4,116.8,144.8z M172.4,221.9L144.6,208v-2.7
			c8.5,3.9,17.9,6.1,27.8,6.1c9.9,0,19.3-2.2,27.8-6.1v2.7L172.4,221.9z M196.5,222.3l-9.1,16.7l-6.6-8.8L196.5,222.3z M164,230.1
			l-6.6,8.8l-9.1-16.7L164,230.1z M116.8,333.7h-16.7v-22.2h-11v22.2H44.6v-41c0-26.7,16.9-49.7,41.7-57.9l30.5,55.9
			C116.8,290.6,116.8,333.7,116.8,333.7z M166.8,333.7h-38.9v-45.9l-30.5-55.9l38.7-8.6l30.7,56.2V333.7z M163.2,249.6l9.2-12.3
			l9.2,12.3l-9.2,16.9L163.2,249.6z M216.8,333.7h-38.9v-54.1l30.7-56.2l38.7,8.6l-30.5,55.9L216.8,333.7L216.8,333.7z M300.2,333.7
			h-44.4v-22.2h-11.1v22.2H228v-43l30.5-55.9c24.9,8.2,41.7,31.2,41.7,57.9V333.7z"/>
	</g>
</g>
</svg>
