<?xml version="1.0" encoding="utf-8"?>
<!-- Generator: Adobe Illustrator 21.0.2, SVG Export Plug-In . SVG Version: 6.00 Build 0)  -->
<svg version="1.1" id="Layer_1" xmlns="http://www.w3.org/2000/svg" xmlns:xlink="http://www.w3.org/1999/xlink" x="0px" y="0px"
	 viewBox="0 0 480 480" style="enable-background:new 0 0 480 480;" xml:space="preserve">
<g>
	<g>
		<path d="M240,0C124.8,0,56,71.8,56,192c0,130.3,171.5,279.8,178.8,286.1c1.5,1.3,3.4,1.9,5.2,1.9s3.7-0.6,5.2-1.9
			C252.5,471.8,424,322.3,424,192C424,71.8,355.2,0,240,0z M240,461.3C211,435,72,302.7,72,192C72,81.8,134.8,16,240,16
			s168,65.8,168,176C408,302.7,269,435,240,461.3z"/>
	</g>
</g>
<g>
	<g>
		<path d="M240,40c-75,0-136,61-136,136s61,136,136,136s136-61,136-136S315,40,240,40z M240,296c-66.2,0-120-53.8-120-120
			S173.8,56,240,56s120,53.8,120,120S306.2,296,240,296z"/>
	</g>
</g>
<g>
	<g>
		<path d="M312,120h-40v-16c0-8.8-7.2-16-16-16h-32c-8.8,0-16,7.2-16,16v16h-40c-4.4,0-8,3.6-8,8v16v80c0,4.4,3.6,8,8,8h144
			c4.4,0,8-3.6,8-8v-80v-16C320,123.6,316.4,120,312,120z M224,104h32v16h-32V104z M304,216H176v-40.2c6.7,5.1,15,8.2,24,8.2h32v8
			h16v-8h32c9,0,17.3-3.1,24-8.2V216z M304,144c0,13.2-10.8,24-24,24h-80c-13.2,0-24-10.8-24-24v-8h40h48h40V144z"/>
	</g>
</g>
<g>
	<g>
		<rect x="200" y="248" width="16" height="16"/>
	</g>
</g>
<g>
	<g>
		<rect x="232" y="248" width="16" height="16"/>
	</g>
</g>
<g>
	<g>
		<rect x="264" y="248" width="16" height="16"/>
	</g>
</g>
<g>
	<g>
		<rect x="336" y="440" width="16" height="16"/>
	</g>
</g>
<g>
	<g>
		<rect x="368" y="440" width="16" height="16"/>
	</g>
</g>
<g>
	<g>
		<rect x="400" y="440" width="16" height="16"/>
	</g>
</g>
<g>
	<g>
		<rect x="64" y="440" width="16" height="16"/>
	</g>
</g>
<g>
	<g>
		<rect x="96" y="440" width="16" height="16"/>
	</g>
</g>
<g>
	<g>
		<rect x="128" y="440" width="16" height="16"/>
	</g>
</g>
</svg>
