<?xml version="1.0" encoding="utf-8"?>
<!-- Generator: Adobe Illustrator 21.0.2, SVG Export Plug-In . SVG Version: 6.00 Build 0)  -->
<svg version="1.1" id="Layer_1" xmlns="http://www.w3.org/2000/svg" xmlns:xlink="http://www.w3.org/1999/xlink" x="0px" y="0px"
	 viewBox="0 0 512 512" style="enable-background:new 0 0 512 512;" xml:space="preserve">
<g>
	<g>
		<path d="M357,101H60.4c-5.6,0-10.2,4.6-10.2,10.2s4.6,10.2,10.2,10.2H357c5.6,0,10.2-4.6,10.2-10.2S362.6,101,357,101z"/>
	</g>
</g>
<g>
	<g>
		<path d="M419.8,101H407c-5.6,0-10.2,4.6-10.2,10.2s4.6,10.2,10.2,10.2h12.8c5.6,0,10.2-4.6,10.2-10.2S425.4,101,419.8,101z"/>
	</g>
</g>
<g>
	<g>
		<path d="M501.8,228.1h-14.3v-128c0-20.8-16.9-37.6-37.6-37.6H49.3C22.1,62.5,0,84.6,0,111.8c0,0.1,0,0.3,0,0.4s0,0.1,0,0.2v277.3
			c0,33,26.8,59.8,59.8,59.8h417.5c5.6,0,10.2-4.6,10.2-10.2v-79.6h14.3c5.6,0,10.2-4.6,10.2-10.2V238.3
			C512,232.7,507.4,228.1,501.8,228.1z M49.3,82.9h400.5c9.5,0,17.2,7.7,17.2,17.2v40.6H49.3c-15.9,0-28.9-13-28.9-28.9
			C20.4,95.8,33.4,82.9,49.3,82.9z M467.1,429.1H59.8c-21.7,0-39.4-17.7-39.4-39.4v-238c8.1,5.9,18.1,9.4,28.9,9.4h417.8v67h-58
			c-36.3,0-65.8,29.5-65.8,65.8s29.5,65.8,65.8,65.8h58L467.1,429.1L467.1,429.1z M491.6,339.4h-82.5c-25,0-45.4-20.4-45.4-45.4
			s20.4-45.4,45.4-45.4h82.5V339.4z"/>
	</g>
</g>
<g>
	<g>
		<path d="M411.7,264.2c-16.4,0-29.8,13.4-29.8,29.8s13.4,29.8,29.8,29.8s29.8-13.4,29.8-29.8C441.5,277.5,428.1,264.2,411.7,264.2z
			 M411.7,303.3c-5.2,0-9.4-4.2-9.4-9.4s4.2-9.4,9.4-9.4c5.2,0,9.4,4.2,9.4,9.4S416.9,303.3,411.7,303.3z"/>
	</g>
</g>
</svg>
